<svg viewBox="0 0 1024 1024" xmlns="http://www.w3.org/2000/svg">
  <defs>
    <clipPath id="sq"><path d="M1018.00 512.00 L1017.97 612.21 L1017.88 644.21 L1017.72 667.48 L1017.51 686.42 L1017.23 702.66 L1016.89 717.04 L1016.49 730.03 L1016.02 741.92 L1015.50 752.93 L1014.91 763.20 L1014.26 772.85 L1013.55 781.96 L1012.77 790.60 L1011.93 798.83 L1011.03 806.68 L1010.07 814.19 L1009.04 821.40 L1007.94 828.33 L1006.79 835.00 L1005.57 841.44 L1004.28 847.65 L1002.93 853.65 L1001.51 859.46 L1000.03 865.08 L998.48 870.53 L996.86 875.82 L995.17 880.95 L993.42 885.93 L991.60 890.77 L989.71 895.48 L987.75 900.05 L985.72 904.50 L983.61 908.82 L981.44 913.03 L979.19 917.12 L976.87 921.11 L974.48 924.99 L972.01 928.76 L969.46 932.44 L966.83 936.01 L964.13 939.49 L961.34 942.88 L958.48 946.17 L955.53 949.38 L952.50 952.50 L949.38 955.53 L946.17 958.48 L942.88 961.34 L939.49 964.13 L936.01 966.83 L932.44 969.46 L928.76 972.01 L924.99 974.48 L921.11 976.87 L917.12 979.19 L913.03 981.44 L908.82 983.61 L904.50 985.72 L900.05 987.75 L895.48 989.71 L890.77 991.60 L885.93 993.42 L880.95 995.17 L875.82 996.86 L870.53 998.48 L865.08 1000.03 L859.46 1001.51 L853.65 1002.93 L847.65 1004.28 L841.44 1005.57 L835.00 1006.79 L828.33 1007.94 L821.40 1009.04 L814.19 1010.07 L806.68 1011.03 L798.83 1011.93 L790.60 1012.77 L781.96 1013.55 L772.85 1014.26 L763.20 1014.91 L752.93 1015.50 L741.92 1016.02 L730.03 1016.49 L717.04 1016.89 L702.66 1017.23 L686.42 1017.51 L667.48 1017.72 L644.21 1017.88 L612.21 1017.97 L512.00 1018.00 L411.79 1017.97 L379.79 1017.88 L356.52 1017.72 L337.58 1017.51 L321.34 1017.23 L306.96 1016.89 L293.97 1016.49 L282.08 1016.02 L271.07 1015.50 L260.80 1014.91 L251.15 1014.26 L242.04 1013.55 L233.40 1012.77 L225.17 1011.93 L217.32 1011.03 L209.81 1010.07 L202.60 1009.04 L195.67 1007.94 L189.00 1006.79 L182.56 1005.57 L176.35 1004.28 L170.35 1002.93 L164.54 1001.51 L158.92 1000.03 L153.47 998.48 L148.18 996.86 L143.05 995.17 L138.07 993.42 L133.23 991.60 L128.52 989.71 L123.95 987.75 L119.50 985.72 L115.18 983.61 L110.97 981.44 L106.88 979.19 L102.89 976.87 L99.01 974.48 L95.24 972.01 L91.56 969.46 L87.99 966.83 L84.51 964.13 L81.12 961.34 L77.83 958.48 L74.62 955.53 L71.50 952.50 L68.47 949.38 L65.52 946.17 L62.66 942.88 L59.87 939.49 L57.17 936.01 L54.54 932.44 L51.99 928.76 L49.52 924.99 L47.13 921.11 L44.81 917.12 L42.56 913.03 L40.39 908.82 L38.28 904.50 L36.25 900.05 L34.29 895.48 L32.40 890.77 L30.58 885.93 L28.83 880.95 L27.14 875.82 L25.52 870.53 L23.97 865.08 L22.49 859.46 L21.07 853.65 L19.72 847.65 L18.43 841.44 L17.21 835.00 L16.06 828.33 L14.96 821.40 L13.93 814.19 L12.97 806.68 L12.07 798.83 L11.23 790.60 L10.45 781.96 L9.74 772.85 L9.09 763.20 L8.50 752.93 L7.98 741.92 L7.51 730.03 L7.11 717.04 L6.77 702.66 L6.49 686.42 L6.28 667.48 L6.12 644.21 L6.03 612.21 L6.00 512.00 L6.03 411.79 L6.12 379.79 L6.28 356.52 L6.49 337.58 L6.77 321.34 L7.11 306.96 L7.51 293.97 L7.98 282.08 L8.50 271.07 L9.09 260.80 L9.74 251.15 L10.45 242.04 L11.23 233.40 L12.07 225.17 L12.97 217.32 L13.93 209.81 L14.96 202.60 L16.06 195.67 L17.21 189.00 L18.43 182.56 L19.72 176.35 L21.07 170.35 L22.49 164.54 L23.97 158.92 L25.52 153.47 L27.14 148.18 L28.83 143.05 L30.58 138.07 L32.40 133.23 L34.29 128.52 L36.25 123.95 L38.28 119.50 L40.39 115.18 L42.56 110.97 L44.81 106.88 L47.13 102.89 L49.52 99.01 L51.99 95.24 L54.54 91.56 L57.17 87.99 L59.87 84.51 L62.66 81.12 L65.52 77.83 L68.47 74.62 L71.50 71.50 L74.62 68.47 L77.83 65.52 L81.12 62.66 L84.51 59.87 L87.99 57.17 L91.56 54.54 L95.24 51.99 L99.01 49.52 L102.89 47.13 L106.88 44.81 L110.97 42.56 L115.18 40.39 L119.50 38.28 L123.95 36.25 L128.52 34.29 L133.23 32.40 L138.07 30.58 L143.05 28.83 L148.18 27.14 L153.47 25.52 L158.92 23.97 L164.54 22.49 L170.35 21.07 L176.35 19.72 L182.56 18.43 L189.00 17.21 L195.67 16.06 L202.60 14.96 L209.81 13.93 L217.32 12.97 L225.17 12.07 L233.40 11.23 L242.04 10.45 L251.15 9.74 L260.80 9.09 L271.07 8.50 L282.08 7.98 L293.97 7.51 L306.96 7.11 L321.34 6.77 L337.58 6.49 L356.52 6.28 L379.79 6.12 L411.79 6.03 L512.00 6.00 L612.21 6.03 L644.21 6.12 L667.48 6.28 L686.42 6.49 L702.66 6.77 L717.04 7.11 L730.03 7.51 L741.92 7.98 L752.93 8.50 L763.20 9.09 L772.85 9.74 L781.96 10.45 L790.60 11.23 L798.83 12.07 L806.68 12.97 L814.19 13.93 L821.40 14.96 L828.33 16.06 L835.00 17.21 L841.44 18.43 L847.65 19.72 L853.65 21.07 L859.46 22.49 L865.08 23.97 L870.53 25.52 L875.82 27.14 L880.95 28.83 L885.93 30.58 L890.77 32.40 L895.48 34.29 L900.05 36.25 L904.50 38.28 L908.82 40.39 L913.03 42.56 L917.12 44.81 L921.11 47.13 L924.99 49.52 L928.76 51.99 L932.44 54.54 L936.01 57.17 L939.49 59.87 L942.88 62.66 L946.17 65.52 L949.38 68.47 L952.50 71.50 L955.53 74.62 L958.48 77.83 L961.34 81.12 L964.13 84.51 L966.83 87.99 L969.46 91.56 L972.01 95.24 L974.48 99.01 L976.87 102.89 L979.19 106.88 L981.44 110.97 L983.61 115.18 L985.72 119.50 L987.75 123.95 L989.71 128.52 L991.60 133.23 L993.42 138.07 L995.17 143.05 L996.86 148.18 L998.48 153.47 L1000.03 158.92 L1001.51 164.54 L1002.93 170.35 L1004.28 176.35 L1005.57 182.56 L1006.79 189.00 L1007.94 195.67 L1009.04 202.60 L1010.07 209.81 L1011.03 217.32 L1011.93 225.17 L1012.77 233.40 L1013.55 242.04 L1014.26 251.15 L1014.91 260.80 L1015.50 271.07 L1016.02 282.08 L1016.49 293.97 L1016.89 306.96 L1017.23 321.34 L1017.51 337.58 L1017.72 356.52 L1017.88 379.79 L1017.97 411.79 L1018.00 512.00 Z"></path></clipPath>
    <linearGradient id="plate" x1="0" y1="0" x2="0" y2="1">
      <stop offset="0" stop-color="#33343c"></stop><stop offset=".5" stop-color="#1c1d22"></stop><stop offset="1" stop-color="#0c0d10"></stop>
    </linearGradient>
    <radialGradient id="vig" cx="50%" cy="38%" r="75%">
      <stop offset="0" stop-color="#3a3b44" stop-opacity=".55"></stop><stop offset="55%" stop-color="#000" stop-opacity="0"></stop><stop offset="100%" stop-color="#000" stop-opacity=".5"></stop>
    </radialGradient>
    <linearGradient id="padOff" x1="0" y1="0" x2="0" y2="1"><stop offset="0" stop-color="#26272d"></stop><stop offset="1" stop-color="#15161a"></stop></linearGradient>
    <linearGradient id="padRoot" x1="0" y1="0" x2="0" y2="1"><stop offset="0" stop-color="#a78bfa"></stop><stop offset="1" stop-color="#6d3ff0"></stop></linearGradient>
    <linearGradient id="padMember" x1="0" y1="0" x2="0" y2="1"><stop offset="0" stop-color="#7be6fa"></stop><stop offset="1" stop-color="#24b6da"></stop></linearGradient>
    <linearGradient id="padOut" x1="0" y1="0" x2="0" y2="1"><stop offset="0" stop-color="#ffffff"></stop><stop offset="1" stop-color="#cdd9f5"></stop></linearGradient>
    <filter id="b40" x="-50%" y="-50%" width="200%" height="200%"><feGaussianBlur stdDeviation="34"></feGaussianBlur></filter>
    <filter id="b30" x="-50%" y="-50%" width="200%" height="200%"><feGaussianBlur stdDeviation="26"></feGaussianBlur></filter>
    <filter id="b24" x="-50%" y="-50%" width="200%" height="200%"><feGaussianBlur stdDeviation="20"></feGaussianBlur></filter>
    <filter id="grain"><feTurbulence type="fractalNoise" baseFrequency="0.9" numOctaves="2" stitchTiles="stitch"></feTurbulence><feColorMatrix type="saturate" values="0"></feColorMatrix></filter>
  </defs>
  <g clip-path="url(#sq)">
    <rect width="1024" height="1024" fill="url(#plate)"></rect>
    <rect width="1024" height="1024" fill="url(#vig)"></rect>
    <rect width="1024" height="1024" filter="url(#grain)" opacity=".05"></rect>
    <rect x="212" y="212" width="127.5" height="127.5" rx="22" fill="url(#padOff)" stroke="#000" stroke-opacity=".5" stroke-width="2"></rect>
      <rect x="215" y="215" width="121.5" height="121.5" rx="19" fill="none" stroke="#fff" stroke-opacity=".045" stroke-width="2"></rect><rect x="369.5" y="212" width="127.5" height="127.5" rx="22" fill="url(#padOff)" stroke="#000" stroke-opacity=".5" stroke-width="2"></rect>
      <rect x="372.5" y="215" width="121.5" height="121.5" rx="19" fill="none" stroke="#fff" stroke-opacity=".045" stroke-width="2"></rect><rect x="527" y="212" width="127.5" height="127.5" rx="22" fill="url(#padOff)" stroke="#000" stroke-opacity=".5" stroke-width="2"></rect>
      <rect x="530" y="215" width="121.5" height="121.5" rx="19" fill="none" stroke="#fff" stroke-opacity=".045" stroke-width="2"></rect><rect x="678.5" y="206" width="139.5" height="139.5" rx="26" fill="#eaf1ff" opacity="0.7" filter="url(#b24)"></rect>
      <rect x="684.5" y="212" width="127.5" height="127.5" rx="22" fill="url(#padOut)" stroke="#eaf1ff" stroke-opacity=".8" stroke-width="2.5"></rect>
      <rect x="689.5" y="216" width="117.5" height="58.75" rx="18" fill="#fff" opacity="0.5"></rect><rect x="212" y="369.5" width="127.5" height="127.5" rx="22" fill="url(#padOff)" stroke="#000" stroke-opacity=".5" stroke-width="2"></rect>
      <rect x="215" y="372.5" width="121.5" height="121.5" rx="19" fill="none" stroke="#fff" stroke-opacity=".045" stroke-width="2"></rect><rect x="369.5" y="369.5" width="127.5" height="127.5" rx="22" fill="url(#padOff)" stroke="#000" stroke-opacity=".5" stroke-width="2"></rect>
      <rect x="372.5" y="372.5" width="121.5" height="121.5" rx="19" fill="none" stroke="#fff" stroke-opacity=".045" stroke-width="2"></rect><rect x="521" y="363.5" width="139.5" height="139.5" rx="26" fill="#34cfe8" opacity="0.7" filter="url(#b30)"></rect>
      <rect x="527" y="369.5" width="127.5" height="127.5" rx="22" fill="url(#padMember)" stroke="#34cfe8" stroke-opacity=".8" stroke-width="2.5"></rect>
      <rect x="532" y="373.5" width="117.5" height="58.75" rx="18" fill="#fff" opacity="0.32"></rect><rect x="684.5" y="369.5" width="127.5" height="127.5" rx="22" fill="url(#padOff)" stroke="#000" stroke-opacity=".5" stroke-width="2"></rect>
      <rect x="687.5" y="372.5" width="121.5" height="121.5" rx="19" fill="none" stroke="#fff" stroke-opacity=".045" stroke-width="2"></rect><rect x="212" y="527" width="127.5" height="127.5" rx="22" fill="url(#padOff)" stroke="#000" stroke-opacity=".5" stroke-width="2"></rect>
      <rect x="215" y="530" width="121.5" height="121.5" rx="19" fill="none" stroke="#fff" stroke-opacity=".045" stroke-width="2"></rect><rect x="363.5" y="521" width="139.5" height="139.5" rx="26" fill="#34cfe8" opacity="0.7" filter="url(#b30)"></rect>
      <rect x="369.5" y="527" width="127.5" height="127.5" rx="22" fill="url(#padMember)" stroke="#34cfe8" stroke-opacity=".8" stroke-width="2.5"></rect>
      <rect x="374.5" y="531" width="117.5" height="58.75" rx="18" fill="#fff" opacity="0.32"></rect><rect x="527" y="527" width="127.5" height="127.5" rx="22" fill="url(#padOff)" stroke="#000" stroke-opacity=".5" stroke-width="2"></rect>
      <rect x="530" y="530" width="121.5" height="121.5" rx="19" fill="none" stroke="#fff" stroke-opacity=".045" stroke-width="2"></rect><rect x="684.5" y="527" width="127.5" height="127.5" rx="22" fill="url(#padOff)" stroke="#000" stroke-opacity=".5" stroke-width="2"></rect>
      <rect x="687.5" y="530" width="121.5" height="121.5" rx="19" fill="none" stroke="#fff" stroke-opacity=".045" stroke-width="2"></rect><rect x="206" y="678.5" width="139.5" height="139.5" rx="26" fill="#8b5cf6" opacity="0.9" filter="url(#b40)"></rect>
      <rect x="212" y="684.5" width="127.5" height="127.5" rx="22" fill="url(#padRoot)" stroke="#8b5cf6" stroke-opacity=".8" stroke-width="2.5"></rect>
      <rect x="217" y="688.5" width="117.5" height="58.75" rx="18" fill="#fff" opacity="0.32"></rect><rect x="369.5" y="684.5" width="127.5" height="127.5" rx="22" fill="url(#padOff)" stroke="#000" stroke-opacity=".5" stroke-width="2"></rect>
      <rect x="372.5" y="687.5" width="121.5" height="121.5" rx="19" fill="none" stroke="#fff" stroke-opacity=".045" stroke-width="2"></rect><rect x="527" y="684.5" width="127.5" height="127.5" rx="22" fill="url(#padOff)" stroke="#000" stroke-opacity=".5" stroke-width="2"></rect>
      <rect x="530" y="687.5" width="121.5" height="121.5" rx="19" fill="none" stroke="#fff" stroke-opacity=".045" stroke-width="2"></rect><rect x="684.5" y="684.5" width="127.5" height="127.5" rx="22" fill="url(#padOff)" stroke="#000" stroke-opacity=".5" stroke-width="2"></rect>
      <rect x="687.5" y="687.5" width="121.5" height="121.5" rx="19" fill="none" stroke="#fff" stroke-opacity=".045" stroke-width="2"></rect>
    
    <path d="M1018.00 512.00 L1017.97 612.21 L1017.88 644.21 L1017.72 667.48 L1017.51 686.42 L1017.23 702.66 L1016.89 717.04 L1016.49 730.03 L1016.02 741.92 L1015.50 752.93 L1014.91 763.20 L1014.26 772.85 L1013.55 781.96 L1012.77 790.60 L1011.93 798.83 L1011.03 806.68 L1010.07 814.19 L1009.04 821.40 L1007.94 828.33 L1006.79 835.00 L1005.57 841.44 L1004.28 847.65 L1002.93 853.65 L1001.51 859.46 L1000.03 865.08 L998.48 870.53 L996.86 875.82 L995.17 880.95 L993.42 885.93 L991.60 890.77 L989.71 895.48 L987.75 900.05 L985.72 904.50 L983.61 908.82 L981.44 913.03 L979.19 917.12 L976.87 921.11 L974.48 924.99 L972.01 928.76 L969.46 932.44 L966.83 936.01 L964.13 939.49 L961.34 942.88 L958.48 946.17 L955.53 949.38 L952.50 952.50 L949.38 955.53 L946.17 958.48 L942.88 961.34 L939.49 964.13 L936.01 966.83 L932.44 969.46 L928.76 972.01 L924.99 974.48 L921.11 976.87 L917.12 979.19 L913.03 981.44 L908.82 983.61 L904.50 985.72 L900.05 987.75 L895.48 989.71 L890.77 991.60 L885.93 993.42 L880.95 995.17 L875.82 996.86 L870.53 998.48 L865.08 1000.03 L859.46 1001.51 L853.65 1002.93 L847.65 1004.28 L841.44 1005.57 L835.00 1006.79 L828.33 1007.94 L821.40 1009.04 L814.19 1010.07 L806.68 1011.03 L798.83 1011.93 L790.60 1012.77 L781.96 1013.55 L772.85 1014.26 L763.20 1014.91 L752.93 1015.50 L741.92 1016.02 L730.03 1016.49 L717.04 1016.89 L702.66 1017.23 L686.42 1017.51 L667.48 1017.72 L644.21 1017.88 L612.21 1017.97 L512.00 1018.00 L411.79 1017.97 L379.79 1017.88 L356.52 1017.72 L337.58 1017.51 L321.34 1017.23 L306.96 1016.89 L293.97 1016.49 L282.08 1016.02 L271.07 1015.50 L260.80 1014.91 L251.15 1014.26 L242.04 1013.55 L233.40 1012.77 L225.17 1011.93 L217.32 1011.03 L209.81 1010.07 L202.60 1009.04 L195.67 1007.94 L189.00 1006.79 L182.56 1005.57 L176.35 1004.28 L170.35 1002.93 L164.54 1001.51 L158.92 1000.03 L153.47 998.48 L148.18 996.86 L143.05 995.17 L138.07 993.42 L133.23 991.60 L128.52 989.71 L123.95 987.75 L119.50 985.72 L115.18 983.61 L110.97 981.44 L106.88 979.19 L102.89 976.87 L99.01 974.48 L95.24 972.01 L91.56 969.46 L87.99 966.83 L84.51 964.13 L81.12 961.34 L77.83 958.48 L74.62 955.53 L71.50 952.50 L68.47 949.38 L65.52 946.17 L62.66 942.88 L59.87 939.49 L57.17 936.01 L54.54 932.44 L51.99 928.76 L49.52 924.99 L47.13 921.11 L44.81 917.12 L42.56 913.03 L40.39 908.82 L38.28 904.50 L36.25 900.05 L34.29 895.48 L32.40 890.77 L30.58 885.93 L28.83 880.95 L27.14 875.82 L25.52 870.53 L23.97 865.08 L22.49 859.46 L21.07 853.65 L19.72 847.65 L18.43 841.44 L17.21 835.00 L16.06 828.33 L14.96 821.40 L13.93 814.19 L12.97 806.68 L12.07 798.83 L11.23 790.60 L10.45 781.96 L9.74 772.85 L9.09 763.20 L8.50 752.93 L7.98 741.92 L7.51 730.03 L7.11 717.04 L6.77 702.66 L6.49 686.42 L6.28 667.48 L6.12 644.21 L6.03 612.21 L6.00 512.00 L6.03 411.79 L6.12 379.79 L6.28 356.52 L6.49 337.58 L6.77 321.34 L7.11 306.96 L7.51 293.97 L7.98 282.08 L8.50 271.07 L9.09 260.80 L9.74 251.15 L10.45 242.04 L11.23 233.40 L12.07 225.17 L12.97 217.32 L13.93 209.81 L14.96 202.60 L16.06 195.67 L17.21 189.00 L18.43 182.56 L19.72 176.35 L21.07 170.35 L22.49 164.54 L23.97 158.92 L25.52 153.47 L27.14 148.18 L28.83 143.05 L30.58 138.07 L32.40 133.23 L34.29 128.52 L36.25 123.95 L38.28 119.50 L40.39 115.18 L42.56 110.97 L44.81 106.88 L47.13 102.89 L49.52 99.01 L51.99 95.24 L54.54 91.56 L57.17 87.99 L59.87 84.51 L62.66 81.12 L65.52 77.83 L68.47 74.62 L71.50 71.50 L74.62 68.47 L77.83 65.52 L81.12 62.66 L84.51 59.87 L87.99 57.17 L91.56 54.54 L95.24 51.99 L99.01 49.52 L102.89 47.13 L106.88 44.81 L110.97 42.56 L115.18 40.39 L119.50 38.28 L123.95 36.25 L128.52 34.29 L133.23 32.40 L138.07 30.58 L143.05 28.83 L148.18 27.14 L153.47 25.52 L158.92 23.97 L164.54 22.49 L170.35 21.07 L176.35 19.72 L182.56 18.43 L189.00 17.21 L195.67 16.06 L202.60 14.96 L209.81 13.93 L217.32 12.97 L225.17 12.07 L233.40 11.23 L242.04 10.45 L251.15 9.74 L260.80 9.09 L271.07 8.50 L282.08 7.98 L293.97 7.51 L306.96 7.11 L321.34 6.77 L337.58 6.49 L356.52 6.28 L379.79 6.12 L411.79 6.03 L512.00 6.00 L612.21 6.03 L644.21 6.12 L667.48 6.28 L686.42 6.49 L702.66 6.77 L717.04 7.11 L730.03 7.51 L741.92 7.98 L752.93 8.50 L763.20 9.09 L772.85 9.74 L781.96 10.45 L790.60 11.23 L798.83 12.07 L806.68 12.97 L814.19 13.93 L821.40 14.96 L828.33 16.06 L835.00 17.21 L841.44 18.43 L847.65 19.72 L853.65 21.07 L859.46 22.49 L865.08 23.97 L870.53 25.52 L875.82 27.14 L880.95 28.83 L885.93 30.58 L890.77 32.40 L895.48 34.29 L900.05 36.25 L904.50 38.28 L908.82 40.39 L913.03 42.56 L917.12 44.81 L921.11 47.13 L924.99 49.52 L928.76 51.99 L932.44 54.54 L936.01 57.17 L939.49 59.87 L942.88 62.66 L946.17 65.52 L949.38 68.47 L952.50 71.50 L955.53 74.62 L958.48 77.83 L961.34 81.12 L964.13 84.51 L966.83 87.99 L969.46 91.56 L972.01 95.24 L974.48 99.01 L976.87 102.89 L979.19 106.88 L981.44 110.97 L983.61 115.18 L985.72 119.50 L987.75 123.95 L989.71 128.52 L991.60 133.23 L993.42 138.07 L995.17 143.05 L996.86 148.18 L998.48 153.47 L1000.03 158.92 L1001.51 164.54 L1002.93 170.35 L1004.28 176.35 L1005.57 182.56 L1006.79 189.00 L1007.94 195.67 L1009.04 202.60 L1010.07 209.81 L1011.03 217.32 L1011.93 225.17 L1012.77 233.40 L1013.55 242.04 L1014.26 251.15 L1014.91 260.80 L1015.50 271.07 L1016.02 282.08 L1016.49 293.97 L1016.89 306.96 L1017.23 321.34 L1017.51 337.58 L1017.72 356.52 L1017.88 379.79 L1017.97 411.79 L1018.00 512.00 Z" fill="none" stroke="#fff" stroke-opacity=".14" stroke-width="3"></path>
    <rect x="0" y="0" width="1024" height="3" fill="#fff" opacity=".10"></rect>
  </g>
</svg>